<svg width="371" height="89" viewBox="0 0 371 89" fill="none" xmlns="http://www.w3.org/2000/svg">
<g clip-path="url(#clip0_1462_2)">
<mask id="mask0_1462_2" style="mask-type:luminance" maskUnits="userSpaceOnUse" x="0" y="0" width="371" height="89">
<path d="M370.017 0H0V88.982H370.017V0Z" fill="white"/>
</mask>
<g mask="url(#mask0_1462_2)">
<path d="M44.4897 48.8683C47.2649 48.8683 49.5147 46.6185 49.5147 43.8433C49.5147 41.0681 47.2649 38.8184 44.4897 38.8184C41.7145 38.8184 39.4648 41.0681 39.4648 43.8433C39.4648 46.6185 41.7145 48.8683 44.4897 48.8683Z" fill="black"/>
<path d="M29.877 33.6207C32.1954 36.0217 35.0596 37.5778 38.0859 38.2825C37.4889 35.2334 36.035 32.3158 33.7166 29.9148C31.3983 27.5127 28.534 25.9577 25.5078 25.252C26.1048 28.3 27.5586 31.2186 29.877 33.6207Z" fill="black"/>
<path d="M33.6188 59.1053C36.0198 56.7881 37.5759 53.9227 38.2805 50.8965C35.2325 51.4945 32.3149 52.9495 29.9129 55.2668C27.5118 57.5862 25.9547 60.4505 25.25 63.4767C28.298 62.8776 31.2156 61.4248 33.6188 59.1053Z" fill="black"/>
<path d="M59.1045 55.3639C56.785 52.9618 53.9208 51.4057 50.8945 50.7021C51.4915 53.7512 52.9464 56.6688 55.2648 59.0687C57.5832 61.4708 60.4485 63.0269 63.4737 63.7315C62.8756 60.6835 61.4207 57.7649 59.1045 55.3639Z" fill="black"/>
<path d="M55.3659 29.8781C52.9627 32.1964 51.4066 35.0607 50.7031 38.087C53.7511 37.4878 56.6686 36.0361 59.0696 33.7166C61.4728 31.3983 63.0289 28.534 63.7324 25.5088C60.6844 26.1047 57.7658 27.5597 55.3659 29.8781Z" fill="black"/>
<path d="M44.4905 0C21.8712 30.0409 44.4905 30.3682 44.4905 30.3682C44.4905 30.3682 67.1098 30.042 44.4905 0Z" fill="black"/>
<path d="M44.4905 88.9823C67.1087 58.9425 44.4905 58.6152 44.4905 58.6152C44.4905 58.6152 21.8712 58.9425 44.4905 88.9823Z" fill="black"/>
<path d="M0 44.4915C30.0409 67.1108 30.3682 44.4915 30.3682 44.4915C30.3682 44.4915 30.0409 21.8722 0 44.4915Z" fill="black"/>
<path d="M88.9815 44.4915C58.9406 21.8722 58.6133 44.4915 58.6133 44.4915C58.6133 44.4915 58.9406 67.1119 88.9815 44.4915Z" fill="black"/>
<path d="M114.779 40.6679H109C110.258 40.5281 111.796 39.596 112.495 37.5922L114.033 32.9786C114.965 30.1825 116.13 26.5475 117.388 22.8194L122.328 8.0932H125.823C137.194 39.7825 136.448 37.8718 136.635 38.2446C137.148 39.3164 137.707 40.1087 138.965 40.6679H132.581C133.28 40.1087 133.373 39.596 133.373 39.3164C133.373 38.9436 133.233 38.431 133 37.7786C131.882 34.7029 129.132 27.2932 126.895 20.8155C126.522 27.2 116.783 27.0602 114.546 32.0466C113.847 34.0504 113.241 36.0543 112.728 37.5456C112.635 37.7786 112.588 38.0582 112.588 38.2912C112.588 38.664 112.728 39.0834 112.961 39.5961C113.194 40.1087 113.8 40.4815 114.779 40.6679ZM114.825 31.3009C117.482 26.7805 126.709 26.8271 126.709 20.3495C123.353 10.9825 122.561 8.60582 122.421 8.37281C120.184 15.1767 119.113 18.4854 118.227 21.1883L117.295 23.9378C116.689 25.8019 115.944 27.9456 114.825 31.3009ZM144.464 24.7767V38.7572C145.909 39.7825 147.959 40.5747 149.73 40.5747C154.623 40.5747 157.606 36.3339 158.351 31.8135C158.584 30.4155 158.584 28.9708 158.445 27.5262C158.072 23.6582 156.068 19.6971 151.78 19.231C150.988 19.1844 150.196 19.231 149.404 19.4641C146.887 20.2097 145.023 22.2136 144.464 24.7767ZM147.4 52.1319H138.033C138.825 51.9921 139.291 51.8057 139.944 51.3397C140.223 51.1067 140.456 50.8737 140.689 50.5475C140.876 50.2213 141.015 49.8019 141.062 49.3824V20.8155C140.829 19.3242 139.524 18.299 138.033 18.2058H144.464V24.0776C145.116 21.7475 146.887 19.9767 149.124 19.0912C150.476 18.532 152.013 18.299 153.691 18.4388C158.025 18.7184 160.681 21.7941 161.52 25.9417C161.753 27.2932 161.846 28.6446 161.707 29.9961C161.147 35.5417 157.606 39.8757 151.827 40.7145C150.522 40.9009 149.264 40.8543 148.006 40.5747C146.747 40.3417 145.536 39.8291 144.464 39.0368V49.3824C144.65 50.9203 145.955 51.8989 147.4 52.1319ZM164.689 34.4698C163.99 32.932 163.617 31.2543 163.617 29.5301C163.617 23.798 167.485 17.9728 175.081 17.9728C176.712 17.9728 178.204 18.2058 179.462 18.7184C180.254 17.7864 181.186 16.6679 181.932 15.6893C182.678 14.7107 183.283 13.7786 183.656 13.4058C183.796 14.4777 184.262 15.7359 185.241 16.6679C185.054 16.6679 184.588 16.6213 184.495 16.6213C183.656 16.6213 181.745 16.9476 179.695 18.8116C183.749 20.5359 185.707 24.3572 185.707 28.5048C185.707 35.3553 180.813 40.2019 174.056 40.2019C171.586 40.2019 169.629 39.5495 167.998 38.4776C167.439 38.7106 167.112 38.9902 166.973 39.4096C166.973 39.5028 166.926 39.596 166.926 39.6893C166.926 40.1087 167.206 40.4349 167.765 40.6679C168.278 40.8543 168.93 40.9475 169.536 40.9475H170.002C171.074 40.9009 172.052 40.9009 173.031 40.9009C174.662 40.9009 176.526 40.9475 177.458 40.9941C182.678 41.3669 184.961 43.4174 184.961 46.3067V46.3999C184.961 50.2213 179.509 51.8523 175.268 52.0853C174.755 52.0853 174.382 52.1319 173.963 52.1319C172.518 52.1319 170.561 52.1319 168.837 51.8057C166.693 51.3863 164.876 49.9417 164.876 48.497V48.1708C164.922 47.3786 165.528 46.8659 166.227 46.8659C166.553 46.8659 166.833 46.9591 167.159 47.1921C167.858 47.7048 167.765 48.264 167.765 48.6368V48.963C167.765 48.963 167.718 49.196 167.718 49.2892C167.718 49.7553 167.951 50.4077 168.557 50.8271C169.256 51.3397 170.188 51.6659 171.446 51.8057C173.171 52.0387 177.784 51.8989 179.602 50.4543C181.466 49.0096 181.885 47.4252 181.885 46.3067C181.885 45.6543 181.839 44.4426 180.347 42.998C179.602 42.299 178.623 41.7863 177.365 41.5067C176.293 41.2271 175.175 41.0873 174.01 41.0873C173.87 41.0873 172.472 41.1339 170.421 41.1339C168.604 41.1339 167.206 40.9941 166.833 40.1087C166.786 39.9689 166.74 39.8291 166.74 39.6893C166.74 39.4562 166.833 39.0368 167.206 38.7106C167.392 38.5708 167.579 38.4776 167.812 38.3378C166.413 37.3592 165.388 36.0543 164.689 34.4698ZM166.833 28.1786C166.74 28.9708 166.693 29.7165 166.693 30.4155C166.693 32.466 167.206 34.8427 168.557 36.7067C169.909 38.6174 171.773 39.6427 173.45 39.8291C173.637 39.8757 173.823 39.8757 174.056 39.8757C175.081 39.8757 176.759 39.6427 178.53 38.1514C180.301 36.7067 181.792 34.1902 182.305 29.9495C182.398 29.297 182.445 28.6446 182.445 27.9922C182.445 25.8951 181.839 23.4718 180.487 21.5145C179.136 19.5573 177.225 18.532 175.874 18.3456C175.687 18.3456 175.501 18.299 175.268 18.299C173.87 18.299 172.006 18.8116 170.328 20.4427C168.604 22.0738 167.252 24.6369 166.833 28.1786ZM187.664 29.8097C187.617 29.3902 187.617 28.9708 187.617 28.5048C187.617 26.6873 187.944 24.3572 189.248 22.167C190.553 19.9767 192.697 18.4388 195.679 18.2524C196.006 18.2058 196.285 18.2058 196.611 18.2058C199.734 18.2058 203.602 20.0233 204.767 23.5184V8H211.524C210.312 8 208.215 8.93204 208.215 11.0757V37.6388C208.262 39.2698 209.52 40.3417 211.151 40.6679H208.309C206.864 40.6679 205.699 39.8291 205.14 38.664C202.949 40.3417 200.759 40.6679 199.175 40.6679C198.662 40.6679 198.103 40.6213 197.544 40.5281C195.26 40.2019 193.023 39.1766 191.206 37.499L190.926 37.2194C190.833 37.1262 190.74 37.0329 190.6 36.9397C188.922 35.1223 187.897 32.5592 187.664 29.8097ZM190.926 27.3398C190.879 27.9456 190.833 28.5048 190.833 29.064C190.833 30.7883 191.066 33.165 192.371 35.6349C192.977 36.8931 193.815 37.9184 194.841 38.7106C196.332 39.8757 198.01 40.3883 199.641 40.3883C201.551 40.3883 203.415 39.7359 205.046 38.4776C204.86 38.0582 204.767 37.6388 204.767 37.1262V24.1242C203.881 20.6291 200.526 19.0912 198.149 19.0912H197.59C193.582 19.4641 191.392 23.1456 190.926 27.3398ZM221.683 40.6213H212.316C213.575 40.4349 215.159 39.5961 215.299 37.6854V30.0427C215.299 28.3184 215.345 27.1534 215.345 25.8951V21.2349C215.345 19.1844 213.481 18.3922 212.316 18.1592C212.736 18.1592 213.528 18.299 214.367 18.4388C215.206 18.5786 215.765 18.5786 215.951 18.5786C216.324 18.5786 216.697 18.532 217.07 18.4854C218.142 18.2524 219.167 17.6466 219.726 16.6679C220.285 15.7359 220.938 14.4777 220.938 13.3592V13.266C220.938 12.101 220.006 10.6563 217.815 10.2835C218.608 10.7029 218.98 11.3553 218.98 12.2408C218.98 13.499 218.048 14.4311 216.93 14.4311C215.811 14.4311 214.879 13.499 214.879 12.2408C214.879 10.7961 215.998 10.1437 217.256 10.1437H217.396C219.819 10.1437 221.077 11.7748 221.217 13.0796V13.266C221.217 14.2912 220.658 15.5495 220.052 16.901C219.446 18.2524 218.747 19.6505 218.747 20.9553V37.6388C218.794 39.2698 220.052 40.2951 221.683 40.6213ZM224.433 39.4096C222.709 37.8718 222.615 35.7281 222.615 35.1689C222.615 34.2368 222.802 33.0252 223.501 31.8601C225.691 28.1786 231.283 27.9456 233.147 23.798C233.38 23.2388 233.52 22.7262 233.52 22.2602C233.52 22.0272 233.52 21.2815 232.914 20.4893C232.308 19.7437 231.47 19.5573 230.957 19.5573C230.771 19.5573 230.538 19.6039 230.351 19.6505C229.093 20.0233 229.186 21.4679 227.788 21.4679H227.602C226.623 21.4679 226.297 20.6291 226.297 20.1631C226.297 19.9767 226.297 19.6039 226.67 19.1844C227.182 18.4854 227.881 18.299 228.767 18.299C230.118 18.299 231.703 18.998 232.681 19.8835C233.8 20.8621 233.753 21.7475 233.753 22.167C233.753 22.9592 233.52 23.9844 232.681 25.2427C232.262 25.8485 231.796 26.4543 231.33 27.0136C230.351 28.132 229.279 29.1572 228.674 29.7631C227.741 30.6951 226.903 31.6737 226.39 32.7922C225.877 33.9106 225.924 34.6563 225.924 34.9359C225.924 35.4485 225.971 35.9611 226.157 36.4737C226.949 38.9436 228.72 40.4349 230.771 40.4349C231.004 40.4349 231.19 40.4349 231.423 40.3883C233.147 40.2019 235.011 38.8504 236.736 36.7533V25.9883V25.4757C236.736 23.4252 236.176 19.3708 233.52 18.3456C236.875 18.5786 240.184 20.7689 240.184 26.0815V32.6058C242.002 30.3689 244.192 27.7592 246.382 25.3825V21.0951C246.242 19.231 244.472 18.4854 243.353 18.2524H249.831V21.8407C251.648 20.2097 253.186 19.0446 254.491 18.6718C255.609 18.299 256.588 18.2524 257.24 18.2524C257.567 18.2524 257.846 18.2524 258.173 18.299C261.015 18.532 263.485 20.5825 264.371 24.3106C264.557 21.8407 266.328 19.4641 269.171 18.6718C270.103 18.3922 271.081 18.2524 272.106 18.2524C272.339 18.2524 272.619 18.299 272.899 18.299C276.44 18.532 279.33 21.8407 279.33 26.9203V27.2466V37.732C279.47 39.363 280.635 40.3883 282.266 40.7145H272.899C274.157 40.5281 275.788 39.6427 275.928 37.732V25.8019C275.928 20.9553 273.365 18.998 270.662 18.998C267.4 18.998 264.557 21.7475 264.557 24.8699V25.2893C264.697 26.4543 264.65 26.2213 264.65 37.732C264.697 39.363 265.955 40.3883 267.586 40.7145H258.219C259.431 40.5747 261.202 39.596 261.202 37.732V25.8019C261.202 22.4 259.664 18.998 255.936 18.998C253.512 18.998 251.555 20.6291 249.831 22.2602C244.239 27.2932 237.108 37.2194 235.617 38.3378C233.986 39.7825 232.495 40.7145 230.444 40.8543C230.025 40.9009 229.652 40.9009 229.233 40.9009C227.928 40.9009 226.064 40.9009 224.433 39.4096ZM252.767 40.7145H243.4C244.611 40.5747 246.149 39.6893 246.382 37.965V26.6407C247.547 25.3825 248.712 24.1708 249.831 23.099V37.732C249.877 39.363 251.136 40.3883 252.767 40.7145ZM236.829 37.965C237.621 37.0795 238.74 35.6349 240.184 33.9106V37.6854C240.231 39.3164 241.489 40.3883 243.12 40.7145H240.277C238.6 40.7145 237.202 39.596 236.829 37.965ZM290.421 23.2388C290.095 24.0776 290.002 24.9165 290.095 25.8019C290.281 27.7126 291.4 29.064 293.124 29.8563C294.009 30.2757 295.174 30.3689 296.526 30.1825C298.203 29.9961 299.741 29.297 301.139 28.4116V28.3184C300.906 25.4757 300.068 21.5145 297.318 20.0233C296.712 19.7437 296.06 19.6039 295.454 19.6039C294.895 19.6039 294.382 19.6971 293.87 19.8835C292.332 20.5825 291.027 21.5611 290.421 23.2388ZM283.244 30.0427C283.151 28.4116 283.384 26.9203 283.943 25.4757C285.528 21.3281 289.303 18.3456 293.823 18.2058C289.536 18.3456 287.112 22.2602 286.506 26.1747C286.273 27.6194 286.227 29.1106 286.367 30.6019C286.879 34.9359 287.951 40.2019 293.403 40.3883C294.848 40.4349 296.06 40.1553 297.085 39.5494C299.322 38.1514 300.394 36.0543 300.906 33.5378C301.139 32.1864 301.279 30.8349 301.233 29.3902C301.745 29.1572 302.211 28.831 302.724 28.5048C303.19 28.1786 303.703 27.8524 304.215 27.4796C304.541 29.1572 304.448 30.8349 303.982 32.5126C302.724 36.7999 298.343 40.6213 293.776 40.6213C288.137 40.6213 283.617 35.4951 283.244 30.0427ZM296.526 30.4155C295.407 30.5553 294.382 30.5087 293.497 30.1825C291.772 29.6233 290.514 28.4116 290.048 26.6873C289.815 25.8485 289.769 24.9165 289.955 23.9378C290.561 21.0485 292.891 19.2776 295.827 19.2776C299.788 19.2776 303.003 22.7728 303.982 26.4077C304.868 25.7553 305.706 25.1495 306.499 24.6369C307.244 24.1242 307.85 23.7048 308.269 23.4718V21.0485C308.176 20.2097 307.803 19.5107 307.151 18.9514C306.638 18.5786 305.846 18.2524 305.24 18.1592H311.718V21.3747C313.769 20.1631 315.959 19.0446 318.242 18.4388C318.941 18.299 319.547 18.2058 320.106 18.2524C324.72 18.6252 326.537 22.9592 326.537 27.1534V37.6388C326.631 39.3164 327.889 40.3883 329.473 40.6679H320.106C320.805 40.5747 321.504 40.2485 322.064 39.8291C322.716 39.3164 323.089 38.5242 323.089 37.6854V25.7553C323.089 24.264 322.809 22.7262 322.11 21.3747C321.318 19.9767 320.2 19.1378 318.522 19.1378C316.332 19.1378 313.582 20.5359 311.718 21.6077C309.108 23.1922 306.545 24.8699 304.029 26.6407C301.932 28.3184 299.182 30.0427 296.526 30.4155ZM314.654 40.6679H305.287C306.778 40.4349 308.083 39.4562 308.269 37.8718V24.6369C309.108 24.1242 309.854 23.6582 310.46 23.2388C311.066 22.866 311.485 22.633 311.718 22.4932V37.6388C311.765 38.3378 311.951 38.897 312.324 39.3164C312.79 40.0155 313.489 40.2951 314.235 40.5281L314.654 40.6679ZM330.499 29.8097C330.452 29.3902 330.452 28.9708 330.452 28.5048C330.452 26.6873 330.778 24.3572 332.083 22.167C333.388 19.9767 335.532 18.4388 338.514 18.2524C338.84 18.2058 339.12 18.2058 339.446 18.2058C342.568 18.2058 346.436 20.0233 347.601 23.5184V8H354.359C353.147 8 351.05 8.93204 351.05 11.0757V37.6388C351.097 39.2698 352.355 40.3417 353.986 40.6679H351.143C349.699 40.6679 348.533 39.8291 347.974 38.664C345.784 40.3417 343.594 40.6679 342.009 40.6679C341.497 40.6679 340.937 40.6213 340.378 40.5281C338.095 40.2019 335.858 39.1766 334.04 37.499L333.761 37.2194C333.668 37.1262 333.574 37.0329 333.434 36.9397C331.757 35.1223 330.732 32.5592 330.499 29.8097ZM333.761 27.3398C333.714 27.9456 333.668 28.5048 333.668 29.064C333.668 30.7883 333.901 33.165 335.205 35.6349C335.811 36.8931 336.65 37.9184 337.675 38.7106C339.167 39.8757 340.844 40.3883 342.475 40.3883C344.386 40.3883 346.25 39.7359 347.881 38.4776C347.695 38.0582 347.601 37.6388 347.601 37.1262V24.1242C346.716 20.6291 343.361 19.0912 340.984 19.0912H340.425C336.417 19.4641 334.227 23.1456 333.761 27.3398ZM356.269 27.3398C355.664 26.5009 355.337 25.4757 355.337 24.1708V23.798C355.477 20.7689 357.248 18.2524 362.001 18.2524C364.471 18.2524 367.221 19.6971 368.945 21.3281H368.898C368.898 21.3747 368.852 21.3747 368.852 21.4213L368.805 21.4679C366.009 18.998 363.353 18.4388 361.815 18.4388C361.629 18.4388 361.442 18.4854 361.302 18.4854C358.273 18.8582 356.642 20.4427 356.409 22.3534V22.7262C356.409 25.2893 359.392 26.6873 363.12 27.9456C366.708 29.2038 370.017 30.8815 370.017 34.33V34.5164C369.877 38.198 366.568 40.4815 363.027 40.4815C359.904 40.4815 357.434 38.5242 357.062 35.9145H357.295C357.621 38.4776 359.951 40.2485 362.887 40.2951C366.056 40.2951 368.432 38.5708 368.665 36.5669C368.665 36.3805 368.712 36.2407 368.712 36.0543C368.712 33.6776 365.823 32.4194 362.188 31.1145C359.765 30.2757 357.574 29.1572 356.269 27.3398Z" fill="black"/>
<path d="M174.103 72.7442V74.6661H178.756V75.7687H173V68.2225H178.311V69.3352H174.103V71.6213C174.312 71.5 174.544 71.419 174.801 71.3786C174.989 71.3448 175.232 71.328 175.529 71.328H177.178V72.4508H175.529C175.252 72.4508 175.01 72.4677 174.801 72.5014C174.544 72.5486 174.312 72.6295 174.103 72.7442ZM185.816 75.7687H180.526V68.2225H181.628V74.6661H185.816V75.7687ZM188.234 72.7442V74.6661H192.887V75.7687H187.131V68.2225H192.442V69.3352H188.234V71.6213C188.443 71.5 188.676 71.419 188.932 71.3786C189.121 71.3448 189.363 71.328 189.66 71.328H191.309V72.4508H189.66C189.384 72.4508 189.141 72.4677 188.932 72.5014C188.676 72.5486 188.443 72.6295 188.234 72.7442ZM201.121 69.1936L200.413 70.0231C200.136 69.7399 199.806 69.5173 199.422 69.3555C199.037 69.1936 198.633 69.1127 198.208 69.1127C197.655 69.1127 197.151 69.2375 196.695 69.487C196.24 69.7365 195.885 70.077 195.628 70.5086C195.365 70.9605 195.234 71.4629 195.234 72.0158C195.234 72.5418 195.375 73.0274 195.659 73.4725C195.928 73.8906 196.291 74.2227 196.746 74.4688C197.201 74.715 197.692 74.8381 198.218 74.8381C198.589 74.8381 198.944 74.774 199.285 74.6459C199.626 74.5177 199.931 74.339 200.2 74.1097V72.734H199.229L198.754 71.6416H201.293V74.5751C200.909 75.0066 200.448 75.3421 199.912 75.5815C199.376 75.8209 198.808 75.9406 198.208 75.9406C197.459 75.9406 196.771 75.7586 196.144 75.3944C195.531 75.0437 195.048 74.5616 194.698 73.9479C194.334 73.3207 194.151 72.6329 194.151 71.8843C194.151 71.1628 194.344 70.4985 194.728 69.8916C195.092 69.3116 195.586 68.8514 196.21 68.5108C196.834 68.1703 197.503 68 198.218 68C198.778 68 199.31 68.1079 199.816 68.3237C200.308 68.526 200.743 68.816 201.121 69.1936ZM205.521 69.0217L205.106 68.091H206.32L209.952 75.7687H208.718L208.222 74.6661H205.926C205.494 74.6661 205.106 74.7066 204.763 74.7875C204.459 74.8617 204.206 74.9594 204.004 75.0808C203.822 75.1887 203.7 75.3 203.64 75.4146L203.448 75.7687H202.254L205.521 69.0217ZM206.33 73.5534H207.726L206.078 70.367L204.409 73.9782C204.557 73.8501 204.783 73.749 205.086 73.6748C205.43 73.5939 205.845 73.5534 206.33 73.5534ZM211.591 69.2847L210.71 68.2225H212.137L216.982 73.9884V68.2225H218.095V75.7687H217.002L212.673 70.5794V75.7687H211.591V69.2847ZM226.784 69.1936L226.076 70.0231C225.799 69.7399 225.469 69.5173 225.085 69.3555C224.7 69.1936 224.296 69.1127 223.871 69.1127C223.318 69.1127 222.814 69.2375 222.358 69.487C221.903 69.7365 221.547 70.077 221.291 70.5086C221.028 70.9605 220.897 71.4629 220.897 72.0158C220.897 72.5418 221.038 73.0274 221.322 73.4725C221.591 73.8906 221.954 74.2227 222.409 74.4688C222.864 74.715 223.355 74.8381 223.881 74.8381C224.366 74.8381 224.818 74.7335 225.236 74.5245C225.654 74.3154 226.002 74.0254 226.278 73.6545L226.956 74.5751C226.572 75.0066 226.111 75.3421 225.575 75.5815C225.039 75.8209 224.471 75.9406 223.871 75.9406C223.122 75.9406 222.434 75.7586 221.807 75.3944C221.193 75.0437 220.711 74.5616 220.361 73.9479C219.996 73.3207 219.814 72.6329 219.814 71.8843C219.814 71.1628 220.007 70.4985 220.391 69.8916C220.755 69.3116 221.249 68.8514 221.873 68.5108C222.497 68.1703 223.166 68 223.881 68C224.441 68 224.973 68.1079 225.479 68.3237C225.971 68.526 226.406 68.816 226.784 69.1936ZM229.677 72.7442V74.6661H234.33V75.7687H228.574V68.2225H233.885V69.3352H229.677V71.6213C229.886 71.5 230.119 71.419 230.375 71.3786C230.564 71.3448 230.807 71.328 231.103 71.328H232.752V72.4508H231.103C230.827 72.4508 230.584 72.4677 230.375 72.5014C230.119 72.5486 229.886 72.6295 229.677 72.7442ZM235.493 75.1415C235.493 74.9729 235.551 74.8296 235.665 74.7116C235.78 74.5936 235.922 74.5346 236.09 74.5346C236.299 74.5346 236.464 74.6088 236.586 74.7571C236.687 74.8853 236.738 75.0488 236.738 75.2477C236.738 75.4467 236.69 75.6591 236.596 75.885C236.502 76.1109 236.37 76.3183 236.201 76.5071C236.019 76.7162 235.814 76.878 235.584 76.9926L235.352 76.6892C235.588 76.5071 235.755 76.3436 235.852 76.1986C235.95 76.0536 235.999 75.9002 235.999 75.7383C235.851 75.7181 235.729 75.6524 235.635 75.5411C235.541 75.4298 235.493 75.2966 235.493 75.1415ZM242.159 69.3251V71.8338C242.368 71.7124 242.601 71.6315 242.857 71.591C243.046 71.5573 243.289 71.5404 243.586 71.5404H245.022C245.42 71.5404 245.73 71.4494 245.953 71.2673C246.189 71.0717 246.307 70.7784 246.307 70.3872C246.307 70.0163 246.182 69.7399 245.933 69.5578C245.717 69.4027 245.413 69.3251 245.022 69.3251H242.159ZM245.386 74.5751L244.466 72.643H243.586C243.309 72.643 243.066 72.6599 242.857 72.6936C242.601 72.7408 242.368 72.8217 242.159 72.9363V75.7687H241.057V68.2225H245.022C245.487 68.2225 245.899 68.3102 246.256 68.4855C246.614 68.6609 246.89 68.9104 247.086 69.2341C247.295 69.578 247.399 69.9826 247.399 70.4479C247.399 71.0144 247.248 71.4797 246.944 71.8439C246.641 72.208 246.212 72.4609 245.659 72.6025L246.246 73.8063C246.415 74.0558 246.546 74.2311 246.641 74.3323C246.755 74.4604 246.865 74.5464 246.969 74.5902C247.074 74.6341 247.21 74.656 247.379 74.656H247.49L247.733 74.6459V75.7687C247.342 75.7687 247.052 75.7552 246.863 75.7282C246.546 75.6743 246.276 75.5697 246.054 75.4146C245.791 75.2258 245.568 74.946 245.386 74.5751ZM250.656 72.7442V74.6661H255.31V75.7687H249.554V68.2225H254.864V69.3352H250.656V71.6213C250.865 71.5 251.098 71.419 251.354 71.3786C251.543 71.3448 251.786 71.328 252.083 71.328H253.732V72.4508H252.083C251.806 72.4508 251.563 72.4677 251.354 72.5014C251.098 72.5486 250.865 72.6295 250.656 72.7442ZM258.587 69.3352V74.6661H260.296C260.769 74.6661 261.193 74.5447 261.571 74.3019C261.928 74.0659 262.208 73.749 262.411 73.3511C262.613 72.9532 262.714 72.5182 262.714 72.0462C262.714 71.5539 262.618 71.1021 262.426 70.6907C262.234 70.2794 261.959 69.9523 261.601 69.7095C261.217 69.46 260.775 69.3352 260.276 69.3352H258.587ZM256.908 69.3352L256.422 68.2225H260.266C260.934 68.2225 261.544 68.3945 262.097 68.7384C262.63 69.0689 263.051 69.5207 263.361 70.0939C263.672 70.6671 263.827 71.2909 263.827 71.9653C263.827 72.471 263.727 72.9718 263.528 73.4674C263.329 73.9631 263.055 74.3963 262.704 74.7672C262.367 75.1314 262.006 75.391 261.622 75.5461C261.251 75.6945 260.809 75.7687 260.296 75.7687H257.505V69.3352H256.908ZM266.649 72.7442V74.6661H271.302V75.7687H265.546V68.2225H270.857V69.3352H266.649V71.6213C266.858 71.5 267.091 71.419 267.347 71.3786C267.536 71.3448 267.779 71.328 268.075 71.328H269.724V72.4508H268.075C267.799 72.4508 267.556 72.4677 267.347 72.5014C267.091 72.5486 266.858 72.6295 266.649 72.7442ZM274.175 72.7442V75.7687H273.072V68.2225H278.383V69.3352H274.175V71.6213C274.384 71.5 274.617 71.419 274.873 71.3786C275.062 71.3448 275.304 71.328 275.601 71.328H277.25V72.4508H275.601C275.325 72.4508 275.082 72.4677 274.873 72.5014C274.617 72.5486 274.384 72.6295 274.175 72.7442ZM281.185 75.7687H280.103V68.2225H281.185V75.7687ZM283.633 69.2847L282.753 68.2225H284.179L289.024 73.9884V68.2225H290.137V75.7687H289.045L284.715 70.5794V75.7687H283.633V69.2847ZM293.465 72.7442V74.6661H298.118V75.7687H292.363V68.2225H297.673V69.3352H293.465V71.6213C293.674 71.5 293.907 71.419 294.163 71.3786C294.352 71.3448 294.595 71.328 294.891 71.328H296.54V72.4508H294.891C294.615 72.4508 294.372 72.4677 294.163 72.5014C293.907 72.5486 293.674 72.6295 293.465 72.7442ZM301.396 69.3352V74.6661H303.105C303.577 74.6661 304.002 74.5447 304.38 74.3019C304.737 74.0659 305.017 73.749 305.219 73.3511C305.422 72.9532 305.523 72.5182 305.523 72.0462C305.523 71.5539 305.427 71.1021 305.234 70.6907C305.042 70.2794 304.767 69.9523 304.41 69.7095C304.026 69.46 303.584 69.3352 303.085 69.3352H301.396ZM299.716 69.3352L299.231 68.2225H303.075C303.742 68.2225 304.353 68.3945 304.906 68.7384C305.438 69.0689 305.86 69.5207 306.17 70.0939C306.48 70.6671 306.635 71.2909 306.635 71.9653C306.635 72.471 306.536 72.9718 306.337 73.4674C306.138 73.9631 305.863 74.3963 305.513 74.7672C305.175 75.1314 304.815 75.391 304.43 75.5461C304.059 75.6945 303.618 75.7687 303.105 75.7687H300.313V69.3352H299.716Z" fill="black"/>
</g>
</g>
<defs>
<clipPath id="clip0_1462_2">
<rect width="371" height="89" fill="white"/>
</clipPath>
</defs>
</svg>
