<svg width="371" height="89" viewBox="0 0 371 89" fill="none" xmlns="http://www.w3.org/2000/svg">
<g clip-path="url(#clip0_1341_90)">
<mask id="mask0_1341_90" style="mask-type:luminance" maskUnits="userSpaceOnUse" x="0" y="0" width="371" height="89">
<path d="M370.017 0H0V88.982H370.017V0Z" fill="white"/>
</mask>
<g mask="url(#mask0_1341_90)">
<path d="M44.4897 48.8683C47.2649 48.8683 49.5147 46.6185 49.5147 43.8433C49.5147 41.0681 47.2649 38.8184 44.4897 38.8184C41.7145 38.8184 39.4648 41.0681 39.4648 43.8433C39.4648 46.6185 41.7145 48.8683 44.4897 48.8683Z" fill="black"/>
<path d="M29.877 33.6207C32.1954 36.0217 35.0596 37.5778 38.0859 38.2825C37.4889 35.2334 36.035 32.3158 33.7166 29.9148C31.3983 27.5127 28.534 25.9577 25.5078 25.252C26.1048 28.3 27.5586 31.2186 29.877 33.6207Z" fill="black"/>
<path d="M33.6188 59.1053C36.0198 56.7881 37.5759 53.9227 38.2805 50.8965C35.2325 51.4945 32.3149 52.9495 29.9129 55.2668C27.5118 57.5862 25.9547 60.4505 25.25 63.4767C28.298 62.8776 31.2156 61.4248 33.6188 59.1053Z" fill="black"/>
<path d="M59.1045 55.3639C56.785 52.9618 53.9208 51.4057 50.8945 50.7021C51.4915 53.7512 52.9464 56.6688 55.2648 59.0687C57.5832 61.4708 60.4485 63.0269 63.4737 63.7315C62.8756 60.6835 61.4207 57.7649 59.1045 55.3639Z" fill="black"/>
<path d="M55.3659 29.8781C52.9627 32.1964 51.4066 35.0607 50.7031 38.087C53.7511 37.4878 56.6686 36.0361 59.0696 33.7166C61.4728 31.3983 63.0289 28.534 63.7324 25.5088C60.6844 26.1047 57.7658 27.5597 55.3659 29.8781Z" fill="black"/>
<path d="M44.4905 0C21.8712 30.0409 44.4905 30.3682 44.4905 30.3682C44.4905 30.3682 67.1098 30.042 44.4905 0Z" fill="black"/>
<path d="M44.4905 88.9823C67.1087 58.9425 44.4905 58.6152 44.4905 58.6152C44.4905 58.6152 21.8712 58.9425 44.4905 88.9823Z" fill="black"/>
<path d="M0 44.4915C30.0409 67.1108 30.3682 44.4915 30.3682 44.4915C30.3682 44.4915 30.0409 21.8722 0 44.4915Z" fill="black"/>
<path d="M88.9815 44.4915C58.9406 21.8722 58.6133 44.4915 58.6133 44.4915C58.6133 44.4915 58.9406 67.1119 88.9815 44.4915Z" fill="black"/>
<path d="M114.779 40.6679H109C110.258 40.5281 111.796 39.596 112.495 37.5922L114.033 32.9786C114.965 30.1825 116.13 26.5475 117.388 22.8194L122.328 8.0932H125.823C137.194 39.7825 136.448 37.8718 136.635 38.2446C137.148 39.3164 137.707 40.1087 138.965 40.6679H132.581C133.28 40.1087 133.373 39.596 133.373 39.3164C133.373 38.9436 133.233 38.431 133 37.7786C131.882 34.7029 129.132 27.2932 126.895 20.8155C126.522 27.2 116.783 27.0602 114.546 32.0466C113.847 34.0504 113.241 36.0543 112.728 37.5456C112.635 37.7786 112.588 38.0582 112.588 38.2912C112.588 38.664 112.728 39.0834 112.961 39.5961C113.194 40.1087 113.8 40.4815 114.779 40.6679ZM114.825 31.3009C117.482 26.7805 126.709 26.8271 126.709 20.3495C123.353 10.9825 122.561 8.60582 122.421 8.37281C120.184 15.1767 119.113 18.4854 118.227 21.1883L117.295 23.9378C116.689 25.8019 115.944 27.9456 114.825 31.3009ZM144.464 24.7767V38.7572C145.909 39.7825 147.959 40.5747 149.73 40.5747C154.623 40.5747 157.606 36.3339 158.351 31.8135C158.584 30.4155 158.584 28.9708 158.445 27.5262C158.072 23.6582 156.068 19.6971 151.78 19.231C150.988 19.1844 150.196 19.231 149.404 19.4641C146.887 20.2097 145.023 22.2136 144.464 24.7767ZM147.4 52.1319H138.033C138.825 51.9921 139.291 51.8057 139.944 51.3397C140.223 51.1067 140.456 50.8737 140.689 50.5475C140.876 50.2213 141.015 49.8019 141.062 49.3824V20.8155C140.829 19.3242 139.524 18.299 138.033 18.2058H144.464V24.0776C145.116 21.7475 146.887 19.9767 149.124 19.0912C150.476 18.532 152.013 18.299 153.691 18.4388C158.025 18.7184 160.681 21.7941 161.52 25.9417C161.753 27.2932 161.846 28.6446 161.707 29.9961C161.147 35.5417 157.606 39.8757 151.827 40.7145C150.522 40.9009 149.264 40.8543 148.006 40.5747C146.747 40.3417 145.536 39.8291 144.464 39.0368V49.3824C144.65 50.9203 145.955 51.8989 147.4 52.1319ZM164.689 34.4698C163.99 32.932 163.617 31.2543 163.617 29.5301C163.617 23.798 167.485 17.9728 175.081 17.9728C176.712 17.9728 178.204 18.2058 179.462 18.7184C180.254 17.7864 181.186 16.6679 181.932 15.6893C182.678 14.7107 183.283 13.7786 183.656 13.4058C183.796 14.4777 184.262 15.7359 185.241 16.6679C185.054 16.6679 184.588 16.6213 184.495 16.6213C183.656 16.6213 181.745 16.9476 179.695 18.8116C183.749 20.5359 185.707 24.3572 185.707 28.5048C185.707 35.3553 180.813 40.2019 174.056 40.2019C171.586 40.2019 169.629 39.5495 167.998 38.4776C167.439 38.7106 167.112 38.9902 166.973 39.4096C166.973 39.5028 166.926 39.596 166.926 39.6893C166.926 40.1087 167.206 40.4349 167.765 40.6679C168.278 40.8543 168.93 40.9475 169.536 40.9475H170.002C171.074 40.9009 172.052 40.9009 173.031 40.9009C174.662 40.9009 176.526 40.9475 177.458 40.9941C182.678 41.3669 184.961 43.4174 184.961 46.3067V46.3999C184.961 50.2213 179.509 51.8523 175.268 52.0853C174.755 52.0853 174.382 52.1319 173.963 52.1319C172.518 52.1319 170.561 52.1319 168.837 51.8057C166.693 51.3863 164.876 49.9417 164.876 48.497V48.1708C164.922 47.3786 165.528 46.8659 166.227 46.8659C166.553 46.8659 166.833 46.9591 167.159 47.1921C167.858 47.7048 167.765 48.264 167.765 48.6368V48.963C167.765 48.963 167.718 49.196 167.718 49.2892C167.718 49.7553 167.951 50.4077 168.557 50.8271C169.256 51.3397 170.188 51.6659 171.446 51.8057C173.171 52.0387 177.784 51.8989 179.602 50.4543C181.466 49.0096 181.885 47.4252 181.885 46.3067C181.885 45.6543 181.839 44.4426 180.347 42.998C179.602 42.299 178.623 41.7863 177.365 41.5067C176.293 41.2271 175.175 41.0873 174.01 41.0873C173.87 41.0873 172.472 41.1339 170.421 41.1339C168.604 41.1339 167.206 40.9941 166.833 40.1087C166.786 39.9689 166.74 39.8291 166.74 39.6893C166.74 39.4562 166.833 39.0368 167.206 38.7106C167.392 38.5708 167.579 38.4776 167.812 38.3378C166.413 37.3592 165.388 36.0543 164.689 34.4698ZM166.833 28.1786C166.74 28.9708 166.693 29.7165 166.693 30.4155C166.693 32.466 167.206 34.8427 168.557 36.7067C169.909 38.6174 171.773 39.6427 173.45 39.8291C173.637 39.8757 173.823 39.8757 174.056 39.8757C175.081 39.8757 176.759 39.6427 178.53 38.1514C180.301 36.7067 181.792 34.1902 182.305 29.9495C182.398 29.297 182.445 28.6446 182.445 27.9922C182.445 25.8951 181.839 23.4718 180.487 21.5145C179.136 19.5573 177.225 18.532 175.874 18.3456C175.687 18.3456 175.501 18.299 175.268 18.299C173.87 18.299 172.006 18.8116 170.328 20.4427C168.604 22.0738 167.252 24.6369 166.833 28.1786ZM187.664 29.8097C187.617 29.3902 187.617 28.9708 187.617 28.5048C187.617 26.6873 187.944 24.3572 189.248 22.167C190.553 19.9767 192.697 18.4388 195.679 18.2524C196.006 18.2058 196.285 18.2058 196.611 18.2058C199.734 18.2058 203.602 20.0233 204.767 23.5184V8H211.524C210.312 8 208.215 8.93204 208.215 11.0757V37.6388C208.262 39.2698 209.52 40.3417 211.151 40.6679H208.309C206.864 40.6679 205.699 39.8291 205.14 38.664C202.949 40.3417 200.759 40.6679 199.175 40.6679C198.662 40.6679 198.103 40.6213 197.544 40.5281C195.26 40.2019 193.023 39.1766 191.206 37.499L190.926 37.2194C190.833 37.1262 190.74 37.0329 190.6 36.9397C188.922 35.1223 187.897 32.5592 187.664 29.8097ZM190.926 27.3398C190.879 27.9456 190.833 28.5048 190.833 29.064C190.833 30.7883 191.066 33.165 192.371 35.6349C192.977 36.8931 193.815 37.9184 194.841 38.7106C196.332 39.8757 198.01 40.3883 199.641 40.3883C201.551 40.3883 203.415 39.7359 205.046 38.4776C204.86 38.0582 204.767 37.6388 204.767 37.1262V24.1242C203.881 20.6291 200.526 19.0912 198.149 19.0912H197.59C193.582 19.4641 191.392 23.1456 190.926 27.3398ZM221.683 40.6213H212.316C213.575 40.4349 215.159 39.5961 215.299 37.6854V30.0427C215.299 28.3184 215.345 27.1534 215.345 25.8951V21.2349C215.345 19.1844 213.481 18.3922 212.316 18.1592C212.736 18.1592 213.528 18.299 214.367 18.4388C215.206 18.5786 215.765 18.5786 215.951 18.5786C216.324 18.5786 216.697 18.532 217.07 18.4854C218.142 18.2524 219.167 17.6466 219.726 16.6679C220.285 15.7359 220.938 14.4777 220.938 13.3592V13.266C220.938 12.101 220.006 10.6563 217.815 10.2835C218.608 10.7029 218.98 11.3553 218.98 12.2408C218.98 13.499 218.048 14.4311 216.93 14.4311C215.811 14.4311 214.879 13.499 214.879 12.2408C214.879 10.7961 215.998 10.1437 217.256 10.1437H217.396C219.819 10.1437 221.077 11.7748 221.217 13.0796V13.266C221.217 14.2912 220.658 15.5495 220.052 16.901C219.446 18.2524 218.747 19.6505 218.747 20.9553V37.6388C218.794 39.2698 220.052 40.2951 221.683 40.6213ZM224.433 39.4096C222.709 37.8718 222.615 35.7281 222.615 35.1689C222.615 34.2368 222.802 33.0252 223.501 31.8601C225.691 28.1786 231.283 27.9456 233.147 23.798C233.38 23.2388 233.52 22.7262 233.52 22.2602C233.52 22.0272 233.52 21.2815 232.914 20.4893C232.308 19.7437 231.47 19.5573 230.957 19.5573C230.771 19.5573 230.538 19.6039 230.351 19.6505C229.093 20.0233 229.186 21.4679 227.788 21.4679H227.602C226.623 21.4679 226.297 20.6291 226.297 20.1631C226.297 19.9767 226.297 19.6039 226.67 19.1844C227.182 18.4854 227.881 18.299 228.767 18.299C230.118 18.299 231.703 18.998 232.681 19.8835C233.8 20.8621 233.753 21.7475 233.753 22.167C233.753 22.9592 233.52 23.9844 232.681 25.2427C232.262 25.8485 231.796 26.4543 231.33 27.0136C230.351 28.132 229.279 29.1572 228.674 29.7631C227.741 30.6951 226.903 31.6737 226.39 32.7922C225.877 33.9106 225.924 34.6563 225.924 34.9359C225.924 35.4485 225.971 35.9611 226.157 36.4737C226.949 38.9436 228.72 40.4349 230.771 40.4349C231.004 40.4349 231.19 40.4349 231.423 40.3883C233.147 40.2019 235.011 38.8504 236.736 36.7533V25.9883V25.4757C236.736 23.4252 236.176 19.3708 233.52 18.3456C236.875 18.5786 240.184 20.7689 240.184 26.0815V32.6058C242.002 30.3689 244.192 27.7592 246.382 25.3825V21.0951C246.242 19.231 244.472 18.4854 243.353 18.2524H249.831V21.8407C251.648 20.2097 253.186 19.0446 254.491 18.6718C255.609 18.299 256.588 18.2524 257.24 18.2524C257.567 18.2524 257.846 18.2524 258.173 18.299C261.015 18.532 263.485 20.5825 264.371 24.3106C264.557 21.8407 266.328 19.4641 269.171 18.6718C270.103 18.3922 271.081 18.2524 272.106 18.2524C272.339 18.2524 272.619 18.299 272.899 18.299C276.44 18.532 279.33 21.8407 279.33 26.9203V27.2466V37.732C279.47 39.363 280.635 40.3883 282.266 40.7145H272.899C274.157 40.5281 275.788 39.6427 275.928 37.732V25.8019C275.928 20.9553 273.365 18.998 270.662 18.998C267.4 18.998 264.557 21.7475 264.557 24.8699V25.2893C264.697 26.4543 264.65 26.2213 264.65 37.732C264.697 39.363 265.955 40.3883 267.586 40.7145H258.219C259.431 40.5747 261.202 39.596 261.202 37.732V25.8019C261.202 22.4 259.664 18.998 255.936 18.998C253.512 18.998 251.555 20.6291 249.831 22.2602C244.239 27.2932 237.108 37.2194 235.617 38.3378C233.986 39.7825 232.495 40.7145 230.444 40.8543C230.025 40.9009 229.652 40.9009 229.233 40.9009C227.928 40.9009 226.064 40.9009 224.433 39.4096ZM252.767 40.7145H243.4C244.611 40.5747 246.149 39.6893 246.382 37.965V26.6407C247.547 25.3825 248.712 24.1708 249.831 23.099V37.732C249.877 39.363 251.136 40.3883 252.767 40.7145ZM236.829 37.965C237.621 37.0795 238.74 35.6349 240.184 33.9106V37.6854C240.231 39.3164 241.489 40.3883 243.12 40.7145H240.277C238.6 40.7145 237.202 39.596 236.829 37.965ZM290.421 23.2388C290.095 24.0776 290.002 24.9165 290.095 25.8019C290.281 27.7126 291.4 29.064 293.124 29.8563C294.009 30.2757 295.174 30.3689 296.526 30.1825C298.203 29.9961 299.741 29.297 301.139 28.4116V28.3184C300.906 25.4757 300.068 21.5145 297.318 20.0233C296.712 19.7437 296.06 19.6039 295.454 19.6039C294.895 19.6039 294.382 19.6971 293.87 19.8835C292.332 20.5825 291.027 21.5611 290.421 23.2388ZM283.244 30.0427C283.151 28.4116 283.384 26.9203 283.943 25.4757C285.528 21.3281 289.303 18.3456 293.823 18.2058C289.536 18.3456 287.112 22.2602 286.506 26.1747C286.273 27.6194 286.227 29.1106 286.367 30.6019C286.879 34.9359 287.951 40.2019 293.403 40.3883C294.848 40.4349 296.06 40.1553 297.085 39.5494C299.322 38.1514 300.394 36.0543 300.906 33.5378C301.139 32.1864 301.279 30.8349 301.233 29.3902C301.745 29.1572 302.211 28.831 302.724 28.5048C303.19 28.1786 303.703 27.8524 304.215 27.4796C304.541 29.1572 304.448 30.8349 303.982 32.5126C302.724 36.7999 298.343 40.6213 293.776 40.6213C288.137 40.6213 283.617 35.4951 283.244 30.0427ZM296.526 30.4155C295.407 30.5553 294.382 30.5087 293.497 30.1825C291.772 29.6233 290.514 28.4116 290.048 26.6873C289.815 25.8485 289.769 24.9165 289.955 23.9378C290.561 21.0485 292.891 19.2776 295.827 19.2776C299.788 19.2776 303.003 22.7728 303.982 26.4077C304.868 25.7553 305.706 25.1495 306.499 24.6369C307.244 24.1242 307.85 23.7048 308.269 23.4718V21.0485C308.176 20.2097 307.803 19.5107 307.151 18.9514C306.638 18.5786 305.846 18.2524 305.24 18.1592H311.718V21.3747C313.769 20.1631 315.959 19.0446 318.242 18.4388C318.941 18.299 319.547 18.2058 320.106 18.2524C324.72 18.6252 326.537 22.9592 326.537 27.1534V37.6388C326.631 39.3164 327.889 40.3883 329.473 40.6679H320.106C320.805 40.5747 321.504 40.2485 322.064 39.8291C322.716 39.3164 323.089 38.5242 323.089 37.6854V25.7553C323.089 24.264 322.809 22.7262 322.11 21.3747C321.318 19.9767 320.2 19.1378 318.522 19.1378C316.332 19.1378 313.582 20.5359 311.718 21.6077C309.108 23.1922 306.545 24.8699 304.029 26.6407C301.932 28.3184 299.182 30.0427 296.526 30.4155ZM314.654 40.6679H305.287C306.778 40.4349 308.083 39.4562 308.269 37.8718V24.6369C309.108 24.1242 309.854 23.6582 310.46 23.2388C311.066 22.866 311.485 22.633 311.718 22.4932V37.6388C311.765 38.3378 311.951 38.897 312.324 39.3164C312.79 40.0155 313.489 40.2951 314.235 40.5281L314.654 40.6679ZM330.499 29.8097C330.452 29.3902 330.452 28.9708 330.452 28.5048C330.452 26.6873 330.778 24.3572 332.083 22.167C333.388 19.9767 335.532 18.4388 338.514 18.2524C338.84 18.2058 339.12 18.2058 339.446 18.2058C342.568 18.2058 346.436 20.0233 347.601 23.5184V8H354.359C353.147 8 351.05 8.93204 351.05 11.0757V37.6388C351.097 39.2698 352.355 40.3417 353.986 40.6679H351.143C349.699 40.6679 348.533 39.8291 347.974 38.664C345.784 40.3417 343.594 40.6679 342.009 40.6679C341.497 40.6679 340.937 40.6213 340.378 40.5281C338.095 40.2019 335.858 39.1766 334.04 37.499L333.761 37.2194C333.668 37.1262 333.574 37.0329 333.434 36.9397C331.757 35.1223 330.732 32.5592 330.499 29.8097ZM333.761 27.3398C333.714 27.9456 333.668 28.5048 333.668 29.064C333.668 30.7883 333.901 33.165 335.205 35.6349C335.811 36.8931 336.65 37.9184 337.675 38.7106C339.167 39.8757 340.844 40.3883 342.475 40.3883C344.386 40.3883 346.25 39.7359 347.881 38.4776C347.695 38.0582 347.601 37.6388 347.601 37.1262V24.1242C346.716 20.6291 343.361 19.0912 340.984 19.0912H340.425C336.417 19.4641 334.227 23.1456 333.761 27.3398ZM356.269 27.3398C355.664 26.5009 355.337 25.4757 355.337 24.1708V23.798C355.477 20.7689 357.248 18.2524 362.001 18.2524C364.471 18.2524 367.221 19.6971 368.945 21.3281H368.898C368.898 21.3747 368.852 21.3747 368.852 21.4213L368.805 21.4679C366.009 18.998 363.353 18.4388 361.815 18.4388C361.629 18.4388 361.442 18.4854 361.302 18.4854C358.273 18.8582 356.642 20.4427 356.409 22.3534V22.7262C356.409 25.2893 359.392 26.6873 363.12 27.9456C366.708 29.2038 370.017 30.8815 370.017 34.33V34.5164C369.877 38.198 366.568 40.4815 363.027 40.4815C359.904 40.4815 357.434 38.5242 357.062 35.9145H357.295C357.621 38.4776 359.951 40.2485 362.887 40.2951C366.056 40.2951 368.432 38.5708 368.665 36.5669C368.665 36.3805 368.712 36.2407 368.712 36.0543C368.712 33.6776 365.823 32.4194 362.188 31.1145C359.765 30.2757 357.574 29.1572 356.269 27.3398Z" fill="black"/>
<path d="M110.103 76.7442V78.6661H114.756V79.7687H109V72.2225H114.311V73.3352H110.103V75.6213C110.312 75.5 110.544 75.419 110.801 75.3786C110.989 75.3448 111.232 75.328 111.529 75.328H113.178V76.4508H111.529C111.252 76.4508 111.01 76.4677 110.801 76.5014C110.544 76.5486 110.312 76.6295 110.103 76.7442ZM121.816 79.7687H116.526V72.2225H117.628V78.6661H121.816V79.7687ZM124.234 76.7442V78.6661H128.887V79.7687H123.131V72.2225H128.442V73.3352H124.234V75.6213C124.443 75.5 124.676 75.419 124.932 75.3786C125.121 75.3448 125.363 75.328 125.66 75.328H127.309V76.4508H125.66C125.384 76.4508 125.141 76.4677 124.932 76.5014C124.676 76.5486 124.443 76.6295 124.234 76.7442ZM137.121 73.1936L136.413 74.0231C136.136 73.7399 135.806 73.5173 135.422 73.3555C135.037 73.1936 134.633 73.1127 134.208 73.1127C133.655 73.1127 133.151 73.2375 132.695 73.487C132.24 73.7365 131.885 74.077 131.628 74.5086C131.365 74.9605 131.234 75.4629 131.234 76.0158C131.234 76.5418 131.375 77.0274 131.659 77.4725C131.928 77.8906 132.291 78.2227 132.746 78.4688C133.201 78.715 133.692 78.8381 134.218 78.8381C134.589 78.8381 134.944 78.774 135.285 78.6459C135.626 78.5177 135.931 78.339 136.2 78.1097V76.734H135.229L134.754 75.6416H137.293V78.5751C136.909 79.0066 136.448 79.3421 135.912 79.5815C135.376 79.8209 134.808 79.9406 134.208 79.9406C133.459 79.9406 132.771 79.7586 132.144 79.3944C131.531 79.0437 131.048 78.5616 130.698 77.9479C130.334 77.3207 130.151 76.6329 130.151 75.8843C130.151 75.1628 130.344 74.4985 130.728 73.8916C131.092 73.3116 131.586 72.8514 132.21 72.5108C132.834 72.1703 133.503 72 134.218 72C134.778 72 135.31 72.1079 135.816 72.3237C136.308 72.526 136.743 72.816 137.121 73.1936ZM141.521 73.0217L141.106 72.091H142.32L145.952 79.7687H144.718L144.222 78.6661H141.926C141.494 78.6661 141.106 78.7066 140.763 78.7875C140.459 78.8617 140.206 78.9594 140.004 79.0808C139.822 79.1887 139.7 79.3 139.64 79.4146L139.448 79.7687H138.254L141.521 73.0217ZM142.33 77.5534H143.726L142.078 74.367L140.409 77.9782C140.557 77.8501 140.783 77.749 141.086 77.6748C141.43 77.5939 141.845 77.5534 142.33 77.5534ZM147.591 73.2847L146.71 72.2225H148.137L152.982 77.9884V72.2225H154.095V79.7687H153.002L148.673 74.5794V79.7687H147.591V73.2847ZM162.784 73.1936L162.076 74.0231C161.799 73.7399 161.469 73.5173 161.085 73.3555C160.7 73.1936 160.296 73.1127 159.871 73.1127C159.318 73.1127 158.814 73.2375 158.358 73.487C157.903 73.7365 157.547 74.077 157.291 74.5086C157.028 74.9605 156.897 75.4629 156.897 76.0158C156.897 76.5418 157.038 77.0274 157.322 77.4725C157.591 77.8906 157.954 78.2227 158.409 78.4688C158.864 78.715 159.355 78.8381 159.881 78.8381C160.366 78.8381 160.818 78.7335 161.236 78.5245C161.654 78.3154 162.002 78.0254 162.278 77.6545L162.956 78.5751C162.572 79.0066 162.111 79.3421 161.575 79.5815C161.039 79.8209 160.471 79.9406 159.871 79.9406C159.122 79.9406 158.434 79.7586 157.807 79.3944C157.193 79.0437 156.711 78.5616 156.361 77.9479C155.996 77.3207 155.814 76.6329 155.814 75.8843C155.814 75.1628 156.007 74.4985 156.391 73.8916C156.755 73.3116 157.249 72.8514 157.873 72.5108C158.497 72.1703 159.166 72 159.881 72C160.441 72 160.973 72.1079 161.479 72.3237C161.971 72.526 162.406 72.816 162.784 73.1936ZM165.677 76.7442V78.6661H170.33V79.7687H164.574V72.2225H169.885V73.3352H165.677V75.6213C165.886 75.5 166.119 75.419 166.375 75.3786C166.564 75.3448 166.807 75.328 167.103 75.328H168.752V76.4508H167.103C166.827 76.4508 166.584 76.4677 166.375 76.5014C166.119 76.5486 165.886 76.6295 165.677 76.7442ZM171.493 79.1415C171.493 78.9729 171.551 78.8296 171.665 78.7116C171.78 78.5936 171.922 78.5346 172.09 78.5346C172.299 78.5346 172.464 78.6088 172.586 78.7571C172.687 78.8853 172.738 79.0488 172.738 79.2477C172.738 79.4467 172.69 79.6591 172.596 79.885C172.502 80.1109 172.37 80.3183 172.201 80.5071C172.019 80.7162 171.814 80.878 171.584 80.9926L171.352 80.6892C171.588 80.5071 171.755 80.3436 171.852 80.1986C171.95 80.0536 171.999 79.9002 171.999 79.7383C171.851 79.7181 171.729 79.6524 171.635 79.5411C171.541 79.4298 171.493 79.2966 171.493 79.1415ZM178.159 73.3251V75.8338C178.368 75.7124 178.601 75.6315 178.857 75.591C179.046 75.5573 179.289 75.5404 179.586 75.5404H181.022C181.42 75.5404 181.73 75.4494 181.953 75.2673C182.189 75.0717 182.307 74.7784 182.307 74.3872C182.307 74.0163 182.182 73.7399 181.933 73.5578C181.717 73.4027 181.413 73.3251 181.022 73.3251H178.159ZM181.386 78.5751L180.466 76.643H179.586C179.309 76.643 179.066 76.6599 178.857 76.6936C178.601 76.7408 178.368 76.8217 178.159 76.9363V79.7687H177.057V72.2225H181.022C181.487 72.2225 181.899 72.3102 182.256 72.4855C182.614 72.6609 182.89 72.9104 183.086 73.2341C183.295 73.578 183.399 73.9826 183.399 74.4479C183.399 75.0144 183.248 75.4797 182.944 75.8439C182.641 76.208 182.212 76.4609 181.659 76.6025L182.246 77.8063C182.415 78.0558 182.546 78.2311 182.641 78.3323C182.755 78.4604 182.865 78.5464 182.969 78.5902C183.074 78.6341 183.21 78.656 183.379 78.656H183.49L183.733 78.6459V79.7687C183.342 79.7687 183.052 79.7552 182.863 79.7282C182.546 79.6743 182.276 79.5697 182.054 79.4146C181.791 79.2258 181.568 78.946 181.386 78.5751ZM186.656 76.7442V78.6661H191.31V79.7687H185.554V72.2225H190.864V73.3352H186.656V75.6213C186.865 75.5 187.098 75.419 187.354 75.3786C187.543 75.3448 187.786 75.328 188.083 75.328H189.732V76.4508H188.083C187.806 76.4508 187.563 76.4677 187.354 76.5014C187.098 76.5486 186.865 76.6295 186.656 76.7442ZM194.587 73.3352V78.6661H196.296C196.769 78.6661 197.193 78.5447 197.571 78.3019C197.928 78.0659 198.208 77.749 198.411 77.3511C198.613 76.9532 198.714 76.5182 198.714 76.0462C198.714 75.5539 198.618 75.1021 198.426 74.6907C198.234 74.2794 197.959 73.9523 197.601 73.7095C197.217 73.46 196.775 73.3352 196.276 73.3352H194.587ZM192.908 73.3352L192.422 72.2225H196.266C196.934 72.2225 197.544 72.3945 198.097 72.7384C198.63 73.0689 199.051 73.5207 199.361 74.0939C199.672 74.6671 199.827 75.2909 199.827 75.9653C199.827 76.471 199.727 76.9718 199.528 77.4674C199.329 77.9631 199.055 78.3963 198.704 78.7672C198.367 79.1314 198.006 79.391 197.622 79.5461C197.251 79.6945 196.809 79.7687 196.296 79.7687H193.505V73.3352H192.908ZM202.649 76.7442V78.6661H207.302V79.7687H201.546V72.2225H206.857V73.3352H202.649V75.6213C202.858 75.5 203.091 75.419 203.347 75.3786C203.536 75.3448 203.779 75.328 204.075 75.328H205.724V76.4508H204.075C203.799 76.4508 203.556 76.4677 203.347 76.5014C203.091 76.5486 202.858 76.6295 202.649 76.7442ZM210.175 76.7442V79.7687H209.072V72.2225H214.383V73.3352H210.175V75.6213C210.384 75.5 210.617 75.419 210.873 75.3786C211.062 75.3448 211.304 75.328 211.601 75.328H213.25V76.4508H211.601C211.325 76.4508 211.082 76.4677 210.873 76.5014C210.617 76.5486 210.384 76.6295 210.175 76.7442ZM217.185 79.7687H216.103V72.2225H217.185V79.7687ZM219.633 73.2847L218.753 72.2225H220.179L225.024 77.9884V72.2225H226.137V79.7687H225.045L220.715 74.5794V79.7687H219.633V73.2847ZM229.465 76.7442V78.6661H234.118V79.7687H228.363V72.2225H233.673V73.3352H229.465V75.6213C229.674 75.5 229.907 75.419 230.163 75.3786C230.352 75.3448 230.595 75.328 230.891 75.328H232.54V76.4508H230.891C230.615 76.4508 230.372 76.4677 230.163 76.5014C229.907 76.5486 229.674 76.6295 229.465 76.7442ZM237.396 73.3352V78.6661H239.105C239.577 78.6661 240.002 78.5447 240.38 78.3019C240.737 78.0659 241.017 77.749 241.219 77.3511C241.422 76.9532 241.523 76.5182 241.523 76.0462C241.523 75.5539 241.427 75.1021 241.234 74.6907C241.042 74.2794 240.767 73.9523 240.41 73.7095C240.026 73.46 239.584 73.3352 239.085 73.3352H237.396ZM235.716 73.3352L235.231 72.2225H239.075C239.742 72.2225 240.353 72.3945 240.906 72.7384C241.438 73.0689 241.86 73.5207 242.17 74.0939C242.48 74.6671 242.635 75.2909 242.635 75.9653C242.635 76.471 242.536 76.9718 242.337 77.4674C242.138 77.9631 241.863 78.3963 241.513 78.7672C241.175 79.1314 240.815 79.391 240.43 79.5461C240.059 79.6945 239.618 79.7687 239.105 79.7687H236.313V73.3352H235.716ZM247.319 73.2847L246.439 72.2225H247.865L252.71 77.9884V72.2225H253.823V79.7687H252.731L248.401 74.5794V79.7687H247.319V73.2847ZM258.405 73.0217L257.991 72.091H259.205L262.836 79.7687H261.602L261.106 78.6661H258.81C258.378 78.6661 257.991 78.7066 257.647 78.7875C257.343 78.8617 257.09 78.9594 256.888 79.0808C256.706 79.1887 256.585 79.3 256.524 79.4146L256.332 79.7687H255.138L258.405 73.0217ZM259.215 77.5534H260.611L258.962 74.367L257.293 77.9782C257.441 77.8501 257.667 77.749 257.97 77.6748C258.314 77.5939 258.729 77.5534 259.215 77.5534ZM269.866 73.3352H267.206V79.7687H266.134V73.3352H263.443V72.2225H269.866V73.3352ZM274.57 79.9406C273.862 79.9406 273.253 79.8176 272.744 79.5714C272.235 79.3253 271.847 78.9696 271.581 78.5042C271.314 78.0389 271.181 77.4826 271.181 76.8352V72.2225H272.274V76.8352C272.274 77.4826 272.473 77.9782 272.871 78.3222C273.268 78.6661 273.835 78.8381 274.57 78.8381C275.305 78.8381 275.871 78.6661 276.269 78.3222C276.667 77.9782 276.866 77.4826 276.866 76.8352V72.2225H277.959V76.8352C277.959 77.4826 277.825 78.0389 277.559 78.5042C277.293 78.9696 276.905 79.3253 276.396 79.5714C275.887 79.8176 275.278 79.9406 274.57 79.9406ZM281.185 73.3251V75.8338C281.395 75.7124 281.627 75.6315 281.883 75.591C282.072 75.5573 282.315 75.5404 282.612 75.5404H284.048C284.446 75.5404 284.756 75.4494 284.979 75.2673C285.215 75.0717 285.333 74.7784 285.333 74.3872C285.333 74.0163 285.208 73.7399 284.959 73.5578C284.743 73.4027 284.439 73.3251 284.048 73.3251H281.185ZM284.412 78.5751L283.492 76.643H282.612C282.335 76.643 282.092 76.6599 281.883 76.6936C281.627 76.7408 281.395 76.8217 281.185 76.9363V79.7687H280.083V72.2225H284.048C284.513 72.2225 284.925 72.3102 285.282 72.4855C285.64 72.6609 285.916 72.9104 286.112 73.2341C286.321 73.578 286.425 73.9826 286.425 74.4479C286.425 75.0144 286.274 75.4797 285.97 75.8439C285.667 76.208 285.238 76.4609 284.685 76.6025L285.272 77.8063C285.441 78.0558 285.572 78.2311 285.667 78.3323C285.781 78.4604 285.891 78.5464 285.995 78.5902C286.1 78.6341 286.236 78.656 286.405 78.656H286.516L286.759 78.6459V79.7687C286.368 79.7687 286.078 79.7552 285.889 79.7282C285.572 79.6743 285.302 79.5697 285.08 79.4146C284.817 79.2258 284.594 78.946 284.412 78.5751ZM290.937 73.0217L290.522 72.091H291.736L295.367 79.7687H294.133L293.638 78.6661H291.341C290.91 78.6661 290.522 78.7066 290.178 78.7875C289.875 78.8617 289.622 78.9594 289.419 79.0808C289.237 79.1887 289.116 79.3 289.055 79.4146L288.863 79.7687H287.669L290.937 73.0217ZM291.746 77.5534H293.142L291.493 74.367L289.824 77.9782C289.972 77.8501 290.198 77.749 290.502 77.6748C290.846 77.5939 291.26 77.5534 291.746 77.5534ZM302.074 79.7687H296.784V72.2225H297.886V78.6661H302.074V79.7687ZM308.679 79.7687H303.389V72.2225H304.491V78.6661H308.679V79.7687ZM312.493 75.5404C312.945 75.0684 313.353 74.5424 313.717 73.9624C314.081 73.3824 314.371 72.8025 314.587 72.2225H315.851C315.507 73.025 315.089 73.7938 314.597 74.5289C314.152 75.1965 313.632 75.854 313.039 76.5014V79.7687H311.947V76.5014C311.353 75.854 310.834 75.1965 310.389 74.5289C309.897 73.7938 309.478 73.025 309.134 72.2225H310.399C310.615 72.8025 310.905 73.3824 311.269 73.9624C311.633 74.5424 312.041 75.0684 312.493 75.5404ZM316.61 79.1415C316.61 78.9729 316.667 78.8296 316.782 78.7116C316.896 78.5936 317.038 78.5346 317.207 78.5346C317.375 78.5346 317.519 78.5936 317.637 78.7116C317.755 78.8296 317.814 78.9729 317.814 79.1415C317.814 79.3101 317.755 79.4517 317.637 79.5664C317.519 79.681 317.375 79.7383 317.207 79.7383C317.038 79.7383 316.896 79.681 316.782 79.5664C316.667 79.4517 316.61 79.3101 316.61 79.1415Z" fill="black"/>
</g>
</g>
<defs>
<clipPath id="clip0_1341_90">
<rect width="371" height="89" fill="white"/>
</clipPath>
</defs>
</svg>
