<svg width="470" height="189" viewBox="0 0 470 189" fill="none" xmlns="http://www.w3.org/2000/svg">
<g clip-path="url(#clip0_1339_2)">
<mask id="mask0_1339_2" style="mask-type:luminance" maskUnits="userSpaceOnUse" x="0" y="0" width="470" height="189">
<path d="M470 0H0V189H470V0Z" fill="white"/>
</mask>
<g mask="url(#mask0_1339_2)">
<path fill-rule="evenodd" clip-rule="evenodd" d="M0 0H470V189H0V0ZM2 2H468V187H2V2ZM6 6H464V183H6V6ZM8 8H462V181H6H8V8Z" fill="black"/>
<path d="M94.4897 98.8683C97.2649 98.8683 99.5147 96.6185 99.5147 93.8433C99.5147 91.0681 97.2649 88.8184 94.4897 88.8184C91.7145 88.8184 89.4648 91.0681 89.4648 93.8433C89.4648 96.6185 91.7145 98.8683 94.4897 98.8683Z" fill="black"/>
<path d="M79.877 83.6208C82.1954 86.0218 85.0596 87.5779 88.0859 88.2825C87.4889 85.2334 86.035 82.3159 83.7166 79.9149C81.3983 77.5128 78.534 75.9578 75.5078 75.252C76.1048 78.3 77.5586 81.2187 79.877 83.6208Z" fill="black"/>
<path d="M83.6188 109.105C86.0198 106.788 87.5759 103.923 88.2805 100.896C85.2325 101.495 82.3149 102.949 79.9129 105.267C77.5118 107.586 75.9547 110.45 75.25 113.477C78.298 112.878 81.2156 111.425 83.6188 109.105Z" fill="black"/>
<path d="M109.105 105.363C106.786 102.961 103.922 101.405 100.895 100.702C101.492 103.751 102.947 106.668 105.266 109.068C107.584 111.47 110.449 113.026 113.475 113.731C112.877 110.683 111.422 107.764 109.105 105.363Z" fill="black"/>
<path d="M105.366 79.8781C102.962 82.1964 101.406 85.0607 100.703 88.087C103.751 87.4878 106.668 86.0361 109.069 83.7166C111.472 81.3983 113.029 78.534 113.732 75.5088C110.684 76.1047 107.766 77.5597 105.366 79.8781Z" fill="black"/>
<path d="M94.4905 50C71.8712 80.0409 94.4905 80.3682 94.4905 80.3682C94.4905 80.3682 117.11 80.042 94.4905 50Z" fill="black"/>
<path d="M94.4905 138.982C117.109 108.942 94.4905 108.615 94.4905 108.615C94.4905 108.615 71.8712 108.942 94.4905 138.982Z" fill="black"/>
<path d="M50 94.4915C80.0409 117.111 80.3682 94.4915 80.3682 94.4915C80.3682 94.4915 80.0409 71.8722 50 94.4915Z" fill="black"/>
<path d="M138.981 94.4915C108.94 71.8722 108.613 94.4915 108.613 94.4915C108.613 94.4915 108.94 117.112 138.981 94.4915Z" fill="black"/>
<path d="M165.779 105.668H160C161.258 105.528 162.796 104.596 163.495 102.592L165.033 97.9786C165.965 95.1825 167.13 91.5475 168.388 87.8194L173.328 73.0932H176.823C188.194 104.783 187.448 102.872 187.635 103.245C188.148 104.316 188.707 105.109 189.965 105.668H183.581C184.28 105.109 184.373 104.596 184.373 104.316C184.373 103.944 184.233 103.431 184 102.779C182.882 99.7029 180.132 92.2932 177.895 85.8155C177.522 92.2 167.783 92.0602 165.546 97.0466C164.847 99.0504 164.241 101.054 163.728 102.546C163.635 102.779 163.588 103.058 163.588 103.291C163.588 103.664 163.728 104.083 163.961 104.596C164.194 105.109 164.8 105.482 165.779 105.668ZM165.825 96.3009C168.482 91.7805 177.709 91.8271 177.709 85.3495C174.353 75.9825 173.561 73.6058 173.421 73.3728C171.184 80.1767 170.113 83.4854 169.227 86.1883L168.295 88.9378C167.689 90.8019 166.944 92.9456 165.825 96.3009ZM195.464 89.7767V103.757C196.909 104.783 198.959 105.575 200.73 105.575C205.623 105.575 208.606 101.334 209.351 96.8135C209.584 95.4155 209.584 93.9708 209.445 92.5262C209.072 88.6582 207.068 84.6971 202.78 84.231C201.988 84.1844 201.196 84.231 200.404 84.4641C197.887 85.2097 196.023 87.2136 195.464 89.7767ZM198.4 117.132H189.033C189.825 116.992 190.291 116.806 190.944 116.34C191.223 116.107 191.456 115.874 191.689 115.547C191.876 115.221 192.015 114.802 192.062 114.382V85.8155C191.829 84.3242 190.524 83.299 189.033 83.2058H195.464V89.0776C196.116 86.7475 197.887 84.9767 200.124 84.0912C201.476 83.532 203.013 83.299 204.691 83.4388C209.025 83.7184 211.681 86.7941 212.52 90.9417C212.753 92.2932 212.846 93.6446 212.707 94.9961C212.147 100.542 208.606 104.876 202.827 105.715C201.522 105.901 200.264 105.854 199.006 105.575C197.747 105.342 196.536 104.829 195.464 104.037V114.382C195.65 115.92 196.955 116.899 198.4 117.132ZM215.689 99.4698C214.99 97.932 214.617 96.2543 214.617 94.5301C214.617 88.798 218.485 82.9728 226.081 82.9728C227.712 82.9728 229.204 83.2058 230.462 83.7184C231.254 82.7864 232.186 81.6679 232.932 80.6893C233.678 79.7107 234.283 78.7786 234.656 78.4058C234.796 79.4777 235.262 80.7359 236.241 81.6679C236.054 81.6679 235.588 81.6213 235.495 81.6213C234.656 81.6213 232.745 81.9476 230.695 83.8116C234.749 85.5359 236.707 89.3572 236.707 93.5048C236.707 100.355 231.813 105.202 225.056 105.202C222.586 105.202 220.629 104.55 218.998 103.478C218.439 103.711 218.112 103.99 217.973 104.41C217.973 104.503 217.926 104.596 217.926 104.689C217.926 105.109 218.206 105.435 218.765 105.668C219.278 105.854 219.93 105.948 220.536 105.948H221.002C222.074 105.901 223.052 105.901 224.031 105.901C225.662 105.901 227.526 105.948 228.458 105.994C233.678 106.367 235.961 108.417 235.961 111.307V111.4C235.961 115.221 230.509 116.852 226.268 117.085C225.755 117.085 225.382 117.132 224.963 117.132C223.518 117.132 221.561 117.132 219.837 116.806C217.693 116.386 215.876 114.942 215.876 113.497V113.171C215.922 112.379 216.528 111.866 217.227 111.866C217.553 111.866 217.833 111.959 218.159 112.192C218.858 112.705 218.765 113.264 218.765 113.637V113.963C218.765 113.963 218.718 114.196 218.718 114.289C218.718 114.755 218.951 115.408 219.557 115.827C220.256 116.34 221.188 116.666 222.446 116.806C224.171 117.039 228.784 116.899 230.602 115.454C232.466 114.01 232.885 112.425 232.885 111.307C232.885 110.654 232.839 109.443 231.347 107.998C230.602 107.299 229.623 106.786 228.365 106.507C227.293 106.227 226.175 106.087 225.01 106.087C224.87 106.087 223.472 106.134 221.421 106.134C219.604 106.134 218.206 105.994 217.833 105.109C217.786 104.969 217.74 104.829 217.74 104.689C217.74 104.456 217.833 104.037 218.206 103.711C218.392 103.571 218.579 103.478 218.812 103.338C217.413 102.359 216.388 101.054 215.689 99.4698ZM217.833 93.1786C217.74 93.9708 217.693 94.7165 217.693 95.4155C217.693 97.466 218.206 99.8427 219.557 101.707C220.909 103.617 222.773 104.643 224.45 104.829C224.637 104.876 224.823 104.876 225.056 104.876C226.081 104.876 227.759 104.643 229.53 103.151C231.301 101.707 232.792 99.1902 233.305 94.9495C233.398 94.297 233.445 93.6446 233.445 92.9922C233.445 90.8951 232.839 88.4718 231.487 86.5145C230.136 84.5573 228.225 83.532 226.874 83.3456C226.687 83.3456 226.501 83.299 226.268 83.299C224.87 83.299 223.006 83.8116 221.328 85.4427C219.604 87.0738 218.252 89.6369 217.833 93.1786ZM238.664 94.8097C238.617 94.3902 238.617 93.9708 238.617 93.5048C238.617 91.6873 238.944 89.3572 240.248 87.167C241.553 84.9767 243.697 83.4388 246.679 83.2524C247.006 83.2058 247.285 83.2058 247.611 83.2058C250.734 83.2058 254.602 85.0233 255.767 88.5184V73H262.524C261.312 73 259.215 73.932 259.215 76.0757V102.639C259.262 104.27 260.52 105.342 262.151 105.668H259.309C257.864 105.668 256.699 104.829 256.14 103.664C253.949 105.342 251.759 105.668 250.175 105.668C249.662 105.668 249.103 105.621 248.544 105.528C246.26 105.202 244.023 104.177 242.206 102.499L241.926 102.219C241.833 102.126 241.74 102.033 241.6 101.94C239.922 100.122 238.897 97.5592 238.664 94.8097ZM241.926 92.3398C241.879 92.9456 241.833 93.5048 241.833 94.064C241.833 95.7883 242.066 98.165 243.371 100.635C243.977 101.893 244.815 102.918 245.841 103.711C247.332 104.876 249.01 105.388 250.641 105.388C252.551 105.388 254.415 104.736 256.046 103.478C255.86 103.058 255.767 102.639 255.767 102.126V89.1242C254.881 85.6291 251.526 84.0912 249.149 84.0912H248.59C244.582 84.4641 242.392 88.1456 241.926 92.3398ZM272.683 105.621H263.316C264.575 105.435 266.159 104.596 266.299 102.685V95.0427C266.299 93.3184 266.345 92.1534 266.345 90.8951V86.2349C266.345 84.1844 264.481 83.3922 263.316 83.1592C263.736 83.1592 264.528 83.299 265.367 83.4388C266.206 83.5786 266.765 83.5786 266.951 83.5786C267.324 83.5786 267.697 83.532 268.07 83.4854C269.142 83.2524 270.167 82.6466 270.726 81.6679C271.285 80.7359 271.938 79.4777 271.938 78.3592V78.266C271.938 77.101 271.006 75.6563 268.815 75.2835C269.608 75.7029 269.98 76.3553 269.98 77.2408C269.98 78.499 269.048 79.4311 267.93 79.4311C266.811 79.4311 265.879 78.499 265.879 77.2408C265.879 75.7961 266.998 75.1437 268.256 75.1437H268.396C270.819 75.1437 272.077 76.7748 272.217 78.0796V78.266C272.217 79.2912 271.658 80.5495 271.052 81.901C270.446 83.2524 269.747 84.6505 269.747 85.9553V102.639C269.794 104.27 271.052 105.295 272.683 105.621ZM275.433 104.41C273.709 102.872 273.615 100.728 273.615 100.169C273.615 99.2368 273.802 98.0252 274.501 96.8601C276.691 93.1786 282.283 92.9456 284.147 88.798C284.38 88.2388 284.52 87.7262 284.52 87.2602C284.52 87.0272 284.52 86.2815 283.914 85.4893C283.308 84.7437 282.47 84.5573 281.957 84.5573C281.771 84.5573 281.538 84.6039 281.351 84.6505C280.093 85.0233 280.186 86.4679 278.788 86.4679H278.602C277.623 86.4679 277.297 85.6291 277.297 85.1631C277.297 84.9767 277.297 84.6039 277.67 84.1844C278.182 83.4854 278.881 83.299 279.767 83.299C281.118 83.299 282.703 83.998 283.681 84.8835C284.8 85.8621 284.753 86.7475 284.753 87.167C284.753 87.9592 284.52 88.9844 283.681 90.2427C283.262 90.8485 282.796 91.4543 282.33 92.0136C281.351 93.132 280.279 94.1572 279.674 94.7631C278.741 95.6951 277.903 96.6737 277.39 97.7922C276.877 98.9106 276.924 99.6563 276.924 99.9359C276.924 100.448 276.971 100.961 277.157 101.474C277.949 103.944 279.72 105.435 281.771 105.435C282.004 105.435 282.19 105.435 282.423 105.388C284.147 105.202 286.011 103.85 287.736 101.753V90.9883V90.4757C287.736 88.4252 287.176 84.3708 284.52 83.3456C287.875 83.5786 291.184 85.7689 291.184 91.0815V97.6058C293.002 95.3689 295.192 92.7592 297.382 90.3825V86.0951C297.242 84.231 295.472 83.4854 294.353 83.2524H300.831V86.8407C302.648 85.2097 304.186 84.0446 305.491 83.6718C306.609 83.299 307.588 83.2524 308.24 83.2524C308.567 83.2524 308.846 83.2524 309.173 83.299C312.015 83.532 314.485 85.5825 315.371 89.3106C315.557 86.8407 317.328 84.4641 320.171 83.6718C321.103 83.3922 322.081 83.2524 323.106 83.2524C323.339 83.2524 323.619 83.299 323.899 83.299C327.44 83.532 330.33 86.8407 330.33 91.9203V92.2466V102.732C330.47 104.363 331.635 105.388 333.266 105.715H323.899C325.157 105.528 326.788 104.643 326.928 102.732V90.8019C326.928 85.9553 324.365 83.998 321.662 83.998C318.4 83.998 315.557 86.7475 315.557 89.8699V90.2893C315.697 91.4543 315.65 91.2213 315.65 102.732C315.697 104.363 316.955 105.388 318.586 105.715H309.219C310.431 105.575 312.202 104.596 312.202 102.732V90.8019C312.202 87.4 310.664 83.998 306.936 83.998C304.512 83.998 302.555 85.6291 300.831 87.2602C295.239 92.2932 288.108 102.219 286.617 103.338C284.986 104.782 283.495 105.715 281.444 105.854C281.025 105.901 280.652 105.901 280.233 105.901C278.928 105.901 277.064 105.901 275.433 104.41ZM303.767 105.715H294.4C295.611 105.575 297.149 104.689 297.382 102.965V91.6407C298.547 90.3825 299.712 89.1708 300.831 88.099V102.732C300.877 104.363 302.136 105.388 303.767 105.715ZM287.829 102.965C288.621 102.079 289.74 100.635 291.184 98.9106V102.685C291.231 104.316 292.489 105.388 294.12 105.715H291.277C289.6 105.715 288.202 104.596 287.829 102.965ZM341.421 88.2388C341.095 89.0776 341.002 89.9165 341.095 90.8019C341.281 92.7126 342.4 94.064 344.124 94.8563C345.009 95.2757 346.174 95.3689 347.526 95.1825C349.203 94.9961 350.741 94.297 352.139 93.4116V93.3184C351.906 90.4757 351.068 86.5145 348.318 85.0233C347.712 84.7437 347.06 84.6039 346.454 84.6039C345.895 84.6039 345.382 84.6971 344.87 84.8835C343.332 85.5825 342.027 86.5611 341.421 88.2388ZM334.244 95.0427C334.151 93.4116 334.384 91.9203 334.943 90.4757C336.528 86.3281 340.303 83.3456 344.823 83.2058C340.536 83.3456 338.112 87.2602 337.506 91.1747C337.273 92.6194 337.227 94.1106 337.367 95.6019C337.879 99.9359 338.951 105.202 344.403 105.388C345.848 105.435 347.06 105.155 348.085 104.549C350.322 103.151 351.394 101.054 351.906 98.5378C352.139 97.1864 352.279 95.8349 352.233 94.3902C352.745 94.1572 353.211 93.831 353.724 93.5048C354.19 93.1786 354.703 92.8524 355.215 92.4796C355.541 94.1572 355.448 95.8349 354.982 97.5126C353.724 101.8 349.343 105.621 344.776 105.621C339.137 105.621 334.617 100.495 334.244 95.0427ZM347.526 95.4155C346.407 95.5553 345.382 95.5087 344.497 95.1825C342.772 94.6233 341.514 93.4116 341.048 91.6873C340.815 90.8485 340.769 89.9165 340.955 88.9378C341.561 86.0485 343.891 84.2776 346.827 84.2776C350.788 84.2776 354.003 87.7728 354.982 91.4077C355.868 90.7553 356.706 90.1495 357.499 89.6369C358.244 89.1242 358.85 88.7048 359.269 88.4718V86.0485C359.176 85.2097 358.803 84.5107 358.151 83.9514C357.638 83.5786 356.846 83.2524 356.24 83.1592H362.718V86.3747C364.769 85.1631 366.959 84.0446 369.242 83.4388C369.941 83.299 370.547 83.2058 371.106 83.2524C375.72 83.6252 377.537 87.9592 377.537 92.1534V102.639C377.631 104.316 378.889 105.388 380.473 105.668H371.106C371.805 105.575 372.504 105.249 373.064 104.829C373.716 104.316 374.089 103.524 374.089 102.685V90.7553C374.089 89.264 373.809 87.7262 373.11 86.3747C372.318 84.9767 371.2 84.1378 369.522 84.1378C367.332 84.1378 364.582 85.5359 362.718 86.6077C360.108 88.1922 357.545 89.8699 355.029 91.6407C352.932 93.3184 350.182 95.0427 347.526 95.4155ZM365.654 105.668H356.287C357.778 105.435 359.083 104.456 359.269 102.872V89.6369C360.108 89.1242 360.854 88.6582 361.46 88.2388C362.066 87.866 362.485 87.633 362.718 87.4932V102.639C362.765 103.338 362.951 103.897 363.324 104.316C363.79 105.015 364.489 105.295 365.235 105.528L365.654 105.668ZM381.499 94.8097C381.452 94.3902 381.452 93.9708 381.452 93.5048C381.452 91.6873 381.778 89.3572 383.083 87.167C384.388 84.9767 386.532 83.4388 389.514 83.2524C389.84 83.2058 390.12 83.2058 390.446 83.2058C393.568 83.2058 397.436 85.0233 398.601 88.5184V73H405.359C404.147 73 402.05 73.932 402.05 76.0757V102.639C402.097 104.27 403.355 105.342 404.986 105.668H402.143C400.699 105.668 399.533 104.829 398.974 103.664C396.784 105.342 394.594 105.668 393.009 105.668C392.497 105.668 391.937 105.621 391.378 105.528C389.095 105.202 386.858 104.177 385.04 102.499L384.761 102.219C384.668 102.126 384.574 102.033 384.434 101.94C382.757 100.122 381.732 97.5592 381.499 94.8097ZM384.761 92.3398C384.714 92.9456 384.668 93.5048 384.668 94.064C384.668 95.7883 384.901 98.165 386.205 100.635C386.811 101.893 387.65 102.918 388.675 103.711C390.167 104.876 391.844 105.388 393.475 105.388C395.386 105.388 397.25 104.736 398.881 103.478C398.695 103.058 398.601 102.639 398.601 102.126V89.1242C397.716 85.6291 394.361 84.0912 391.984 84.0912H391.425C387.417 84.4641 385.227 88.1456 384.761 92.3398ZM407.269 92.3398C406.664 91.5009 406.337 90.4757 406.337 89.1708V88.798C406.477 85.7689 408.248 83.2524 413.001 83.2524C415.471 83.2524 418.221 84.6971 419.945 86.3281H419.898C419.898 86.3747 419.852 86.3747 419.852 86.4213L419.805 86.4679C417.009 83.998 414.353 83.4388 412.815 83.4388C412.629 83.4388 412.442 83.4854 412.302 83.4854C409.273 83.8582 407.642 85.4427 407.409 87.3534V87.7262C407.409 90.2893 410.392 91.6873 414.12 92.9456C417.708 94.2038 421.017 95.8815 421.017 99.33V99.5164C420.877 103.198 417.568 105.481 414.027 105.481C410.904 105.481 408.434 103.524 408.062 100.914H408.295C408.621 103.478 410.951 105.248 413.887 105.295C417.056 105.295 419.432 103.571 419.665 101.567C419.665 101.381 419.712 101.241 419.712 101.054C419.712 98.6776 416.823 97.4194 413.188 96.1145C410.765 95.2757 408.574 94.1572 407.269 92.3398Z" fill="black"/>
</g>
</g>
<defs>
<clipPath id="clip0_1339_2">
<rect width="470" height="189" fill="white"/>
</clipPath>
</defs>
</svg>
