<svg width="1357" height="38" viewBox="0 0 1357 38" fill="none" xmlns="http://www.w3.org/2000/svg">
<path d="M325.5 19L325.5 18L325.5 18L325.5 19ZM1356.71 19.707C1357.1 19.3165 1357.1 18.6833 1356.71 18.2928L1350.34 11.9288C1349.95 11.5383 1349.32 11.5383 1348.93 11.9288C1348.54 12.3193 1348.54 12.9525 1348.93 13.343L1354.59 18.9999L1348.93 24.6567C1348.54 25.0473 1348.54 25.6804 1348.93 26.0709C1349.32 26.4615 1349.95 26.4615 1350.34 26.0709L1356.71 19.707ZM1.3476e-07 20L325.5 20L325.5 18L-1.3476e-07 18L1.3476e-07 20ZM325.5 20L1356 19.9999L1356 17.9999L325.5 18L325.5 20Z" fill="url(#paint0_linear_1230_24)"/>
<path d="M1356 19L1338 37" stroke="white" stroke-width="2"/>
<path d="M1356 19L1338 1" stroke="white" stroke-width="2"/>
<defs>
<linearGradient id="paint0_linear_1230_24" x1="-2.89868e-10" y1="19" x2="358" y2="19" gradientUnits="userSpaceOnUse">
<stop stop-color="#999999" stop-opacity="0"/>
<stop offset="1" stop-color="white"/>
</linearGradient>
</defs>
</svg>
