<svg width="148" height="1357" viewBox="0 0 148 1357" fill="none" xmlns="http://www.w3.org/2000/svg">
<path d="M75.6797 325.5L76.6797 325.5V325.5L75.6797 325.5ZM74.9726 1356.71C75.3632 1357.1 75.9963 1357.1 76.3869 1356.71L82.7508 1350.34C83.1413 1349.95 83.1413 1349.32 82.7508 1348.93C82.3603 1348.54 81.7271 1348.54 81.3366 1348.93L75.6798 1354.59L70.0229 1348.93C69.6324 1348.54 68.9992 1348.54 68.6087 1348.93C68.2182 1349.32 68.2182 1349.95 68.6087 1350.34L74.9726 1356.71ZM74.6797 8.59335e-08L74.6797 325.5L76.6797 325.5L76.6797 -8.59335e-08L74.6797 8.59335e-08ZM74.6797 325.5L74.6798 1356L76.6798 1356L76.6797 325.5L74.6797 325.5Z" fill="url(#paint0_linear_1273_26)"/>
<path d="M75.6824 1356L55.2969 1338" stroke="#6E6E6E" stroke-width="2"/>
<path d="M75.6848 1356L96.0703 1338" stroke="#6E6E6E" stroke-width="2"/>
<path d="M139.681 1197.41L138.681 1197.41L138.681 1197.4L139.681 1197.41ZM140.709 1300.7C140.32 1301.1 139.687 1301.1 139.295 1300.71L132.911 1294.37C132.52 1293.98 132.518 1293.34 132.907 1292.95C133.296 1292.56 133.929 1292.56 134.321 1292.95L139.996 1298.59L145.635 1292.91C146.024 1292.52 146.657 1292.52 147.049 1292.91C147.441 1293.3 147.443 1293.93 147.053 1294.32L140.709 1300.7ZM141 1165.01L140.681 1197.42L138.681 1197.4L139 1164.99L141 1165.01ZM140.681 1197.4L141 1300L139 1300L138.681 1197.41L140.681 1197.4Z" fill="url(#paint1_linear_1273_26)"/>
<path d="M8.32031 1197.41L9.32039 1197.41L9.32027 1197.4L8.32031 1197.41ZM7.2916 1300.7C7.68091 1301.1 8.31407 1301.1 8.70581 1300.71L15.0895 1294.37C15.4813 1293.98 15.4833 1293.34 15.094 1292.95C14.7046 1292.56 14.0715 1292.56 13.6797 1292.95L8.00531 1298.59L2.36609 1292.91C1.97679 1292.52 1.34362 1292.52 0.951885 1292.91C0.560147 1293.3 0.558176 1293.93 0.947482 1294.32L7.2916 1300.7ZM7.00095 1165.01L7.32036 1197.42L9.32027 1197.4L9.00085 1164.99L7.00095 1165.01ZM7.32032 1197.4L7.00091 1300L9.0009 1300L9.32031 1197.41L7.32032 1197.4Z" fill="url(#paint2_linear_1273_26)"/>
<defs>
<linearGradient id="paint0_linear_1273_26" x1="75.6797" y1="-2.89775e-10" x2="75.6797" y2="358" gradientUnits="userSpaceOnUse">
<stop stop-color="#6E6E6E" stop-opacity="0"/>
<stop offset="1" stop-color="#6E6E6E"/>
</linearGradient>
<linearGradient id="paint1_linear_1273_26" x1="139.961" y1="1165" x2="139.961" y2="1200.64" gradientUnits="userSpaceOnUse">
<stop stop-color="#999999" stop-opacity="0"/>
<stop offset="1" stop-color="#6E6E6E"/>
</linearGradient>
<linearGradient id="paint2_linear_1273_26" x1="8.03944" y1="1165" x2="8.03944" y2="1200.64" gradientUnits="userSpaceOnUse">
<stop stop-color="#999999" stop-opacity="0"/>
<stop offset="1" stop-color="#6E6E6E"/>
</linearGradient>
</defs>
</svg>
