<svg width="39" height="27" viewBox="0 0 39 27" fill="none" xmlns="http://www.w3.org/2000/svg">
<path d="M25.5 0L26.8264 8.0527C27.1748 10.1676 28.8324 11.8252 30.9473 12.1736L39 13.5L30.9473 14.8264C28.8324 15.1748 27.1748 16.8324 26.8264 18.9473L25.5 27L24.1736 18.9473C23.8252 16.8324 22.1676 15.1748 20.0527 14.8264L12 13.5L20.0527 12.1736C22.1676 11.8252 23.8252 10.1676 24.1736 8.0527L25.5 0Z" fill="#222222"/>
<path d="M5 0L5.19429 2.09549C5.32762 3.53346 6.46654 4.67238 7.90451 4.80571L10 5L7.90451 5.19429C6.46654 5.32762 5.32762 6.46654 5.19429 7.90451L5 10L4.80571 7.90451C4.67238 6.46654 3.53346 5.32762 2.09549 5.19429L0 5L2.09549 4.80571C3.53346 4.67238 4.67238 3.53346 4.80571 2.09549L5 0Z" fill="#222222"/>
<path d="M9 20L9.10125 21.0919C9.19013 22.0506 9.94941 22.8099 10.9081 22.8988L12 23L10.9081 23.1012C9.94941 23.1901 9.19013 23.9494 9.10125 24.9081L9 26L8.89875 24.9081C8.80987 23.9494 8.05059 23.1901 7.09195 23.1012L6 23L7.09195 22.8988C8.05059 22.8099 8.80987 22.0506 8.89875 21.0919L9 20Z" fill="#222222"/>
</svg>
