<svg width="32" height="32" viewBox="0 0 32 32" fill="none" xmlns="http://www.w3.org/2000/svg">
<g clip-path="url(#clip0_1464_2)">
<mask id="mask0_1464_2" style="mask-type:luminance" maskUnits="userSpaceOnUse" x="0" y="0" width="134" height="32">
<path d="M133.04 0H0V31.9935H133.04V0Z" fill="white"/>
</mask>
<g mask="url(#mask0_1464_2)">
<path d="M15.9981 17.5705C16.9959 17.5705 17.8049 16.7616 17.8049 15.7637C17.8049 14.7659 16.9959 13.957 15.9981 13.957C15.0003 13.957 14.1914 14.7659 14.1914 15.7637C14.1914 16.7616 15.0003 17.5705 15.9981 17.5705Z" fill="black"/>
<path d="M10.7428 12.0881C11.5764 12.9514 12.6062 13.5108 13.6943 13.7642C13.4797 12.6679 12.9569 11.6189 12.1234 10.7556C11.2898 9.89194 10.2599 9.33284 9.17188 9.0791C9.38653 10.175 9.90924 11.2244 10.7428 12.0881Z" fill="black"/>
<path d="M12.0871 21.2513C12.9504 20.4181 13.5099 19.3879 13.7632 18.2998C12.6673 18.5148 11.6183 19.038 10.7547 19.8711C9.89136 20.7051 9.3315 21.735 9.07812 22.823C10.174 22.6076 11.2231 22.0853 12.0871 21.2513Z" fill="black"/>
<path d="M21.2527 19.9066C20.4187 19.0429 19.3889 18.4834 18.3008 18.2305C18.5154 19.3268 19.0385 20.3758 19.8721 21.2387C20.7057 22.1024 21.7359 22.6619 22.8236 22.9152C22.6086 21.8193 22.0855 20.7699 21.2527 19.9066Z" fill="black"/>
<path d="M19.907 10.7429C19.0429 11.5764 18.4834 12.6063 18.2305 13.6944C19.3264 13.4789 20.3754 12.957 21.2386 12.123C22.1027 11.2894 22.6622 10.2596 22.9152 9.17188C21.8192 9.38613 20.7699 9.90928 19.907 10.7429Z" fill="black"/>
<path d="M15.9974 0C7.8646 10.8012 15.9974 10.9189 15.9974 10.9189C15.9974 10.9189 24.1302 10.8016 15.9974 0Z" fill="black"/>
<path d="M15.9974 31.9937C24.1298 21.1929 15.9974 21.0752 15.9974 21.0752C15.9974 21.0752 7.8646 21.1929 15.9974 31.9937Z" fill="black"/>
<path d="M0 15.9974C10.8012 24.1302 10.9189 15.9974 10.9189 15.9974C10.9189 15.9974 10.8012 7.8646 0 15.9974Z" fill="black"/>
<path d="M31.9931 15.9974C21.1919 7.8646 21.0742 15.9974 21.0742 15.9974C21.0742 15.9974 21.1919 24.1306 31.9931 15.9974Z" fill="black"/>
</g>
</g>
<defs>
<clipPath id="clip0_1464_2">
<rect width="32" height="32" fill="white"/>
</clipPath>
</defs>
</svg>
